<svg xmlns="http://www.w3.org/2000/svg" viewBox="0 0 70.41 70.41"><defs><style>.cls-1{fill:none;stroke:#f2910f;stroke-miterlimit:10;}</style></defs><g id="Layer_1" data-name="Layer 1"><path class="cls-1" d="M47.67,34.91c0,6.89-12.46,10.65-12.46,10.65S22.74,41.8,22.74,34.91,35.21,24.26,35.21,24.26,47.67,28,47.67,34.91Z"/><line class="cls-1" x1="23.27" y1="32.49" x2="47.14" y2="32.49"/><line class="cls-1" x1="23.57" y1="37.93" x2="46.84" y2="37.93"/><path class="cls-1" d="M47.67,34.91c0,6.89-12.46,10.65-12.46,10.65S22.74,41.8,22.74,34.91,35.21,24.26,35.21,24.26,47.67,28,47.67,34.91Z"/><line class="cls-1" x1="23.27" y1="32.49" x2="47.14" y2="32.49"/><line class="cls-1" x1="23.57" y1="37.93" x2="46.84" y2="37.93"/><path class="cls-1" d="M47.14,11.17a6,6,0,0,1,.53,2.44c0,6.88-12.46,10.65-12.46,10.65S22.74,20.49,22.74,13.61a5.85,5.85,0,0,1,.53-2.42Z"/><line class="cls-1" x1="23.57" y1="16.63" x2="46.84" y2="16.63"/><line class="cls-1" x1="23.27" y1="53.8" x2="47.14" y2="53.8"/><path class="cls-1" d="M46.84,59.24H23.57a6.14,6.14,0,0,1-.83-3c0-6.89,12.47-10.66,12.47-10.66s12.46,3.77,12.46,10.66a6.14,6.14,0,0,1-.83,3Z"/></g></svg>