<svg xmlns="http://www.w3.org/2000/svg" viewBox="0 0 70.41 70.41"><defs><style>.cls-1,.cls-2{fill:none;stroke:#005cb9;stroke-miterlimit:10;}.cls-2{stroke-width:0.5px;}</style></defs><g id="Layer_1" data-name="Layer 1"><polygon class="cls-1" points="43.79 20.34 26.62 20.34 18.04 35.2 26.62 50.07 43.79 50.07 52.37 35.2 43.79 20.34"/><circle class="cls-1" cx="11.24" cy="35.21" r="3.75"/><line class="cls-1" x1="14.98" y1="35.21" x2="18.04" y2="35.21"/><circle class="cls-1" cx="59.18" cy="35.21" r="3.75"/><line class="cls-1" x1="55.43" y1="35.21" x2="52.37" y2="35.21"/><circle class="cls-1" cx="23.22" cy="14.45" r="3.75"/><line class="cls-1" x1="25.09" y1="17.69" x2="26.62" y2="20.34"/><circle class="cls-1" cx="47.19" cy="55.96" r="3.75"/><line class="cls-1" x1="45.32" y1="52.72" x2="43.79" y2="50.07"/><circle class="cls-1" cx="47.19" cy="14.45" r="3.75"/><line class="cls-1" x1="45.32" y1="17.69" x2="43.79" y2="20.34"/><circle class="cls-1" cx="23.22" cy="55.96" r="3.75"/><line class="cls-1" x1="25.09" y1="52.72" x2="26.62" y2="50.07"/><path class="cls-2" d="M39.43,35.11c0,2.33-4.22,3.6-4.22,3.6S31,37.44,31,35.11s4.23-3.61,4.23-3.61S39.43,32.77,39.43,35.11Z"/><line class="cls-2" x1="31.16" y1="34.29" x2="39.25" y2="34.29"/><line class="cls-2" x1="31.27" y1="36.13" x2="39.14" y2="36.13"/><path class="cls-2" d="M39.43,35.11c0,2.33-4.22,3.6-4.22,3.6S31,37.44,31,35.11s4.23-3.61,4.23-3.61S39.43,32.77,39.43,35.11Z"/><line class="cls-2" x1="31.16" y1="34.29" x2="39.25" y2="34.29"/><line class="cls-2" x1="31.27" y1="36.13" x2="39.14" y2="36.13"/><path class="cls-2" d="M39.25,27.07a2.08,2.08,0,0,1,.18.82c0,2.33-4.22,3.61-4.22,3.61S31,30.22,31,27.89a2.08,2.08,0,0,1,.18-.82Z"/><line class="cls-2" x1="31.27" y1="28.91" x2="39.14" y2="28.91"/><line class="cls-2" x1="31.16" y1="41.5" x2="39.25" y2="41.5"/><path class="cls-2" d="M31.27,43.34a2,2,0,0,1-.29-1c0-2.33,4.23-3.61,4.23-3.61s4.22,1.28,4.22,3.61a2,2,0,0,1-.29,1Z"/></g></svg>