<svg xmlns="http://www.w3.org/2000/svg" viewBox="0 0 70.41 70.41"><defs><style>.cls-1,.cls-2{fill:none;stroke:#00a0df;stroke-miterlimit:10;}.cls-2{stroke-width:2px;}</style></defs><g id="Layer_1" data-name="Layer 1"><circle class="cls-1" cx="35.21" cy="35.21" r="16.03"/><circle class="cls-1" cx="35.21" cy="11.24" r="3.75"/><line class="cls-1" x1="35.21" y1="14.98" x2="35.21" y2="19.17"/><circle class="cls-1" cx="52.15" cy="18.26" r="3.75"/><line class="cls-1" x1="49.51" y1="20.9" x2="46.54" y2="23.87"/><line class="cls-2" x1="46.54" y1="23.87" x2="23.87" y2="46.54"/><line class="cls-2" x1="46.54" y1="46.54" x2="23.87" y2="23.87"/><circle class="cls-1" cx="59.18" cy="35.21" r="3.75"/><line class="cls-1" x1="55.43" y1="35.21" x2="51.24" y2="35.21"/><circle class="cls-1" cx="52.15" cy="52.15" r="3.75"/><line class="cls-1" x1="49.51" y1="49.51" x2="46.54" y2="46.54"/><circle class="cls-1" cx="35.21" cy="59.18" r="3.75"/><line class="cls-1" x1="35.21" y1="55.43" x2="35.21" y2="51.24"/><circle class="cls-1" cx="18.26" cy="52.15" r="3.75"/><line class="cls-1" x1="20.9" y1="49.51" x2="23.87" y2="46.54"/><circle class="cls-1" cx="11.24" cy="35.21" r="3.75"/><line class="cls-1" x1="14.98" y1="35.21" x2="19.17" y2="35.21"/><circle class="cls-1" cx="18.26" cy="18.26" r="3.75"/><line class="cls-1" x1="20.9" y1="20.9" x2="23.87" y2="23.87"/></g></svg>